<?xml version="1.0" encoding="iso-8859-1"?>
<!-- Generator: Adobe Illustrator 19.0.0, SVG Export Plug-In . SVG Version: 6.00 Build 0)  -->
<svg version="1.1" id="Layer_1" xmlns="http://www.w3.org/2000/svg" xmlns:xlink="http://www.w3.org/1999/xlink" x="0px" y="0px"
	 viewBox="0 0 512 512" style="enable-background:new 0 0 512 512;" xml:space="preserve">
<g>
	<g>
		<path d="M466.373,69.818H47.564C21.873,69.818,0,90.053,0,115.689v279.374c0,25.635,21.873,47.119,47.564,47.119h418.809
			c25.691,0,45.627-21.484,45.627-47.119V115.689C512,90.053,492.064,69.818,466.373,69.818z M493.382,395.062
			c0,15.372-11.582,28.501-27.009,28.501H47.564c-15.427,0-28.945-13.13-28.945-28.501V115.689
			c0-15.373,13.518-27.252,28.945-27.252h418.809c15.427,0,27.009,11.88,27.009,27.252V395.062z"/>
	</g>
</g>
<g>
	<g>
		<path d="M429.182,134.982h-55.855c-15.4,0-28.891,11.902-28.891,27.298v55.864c0,15.397,13.491,28.548,28.891,28.548h55.855
			c15.4,0,26.964-13.151,26.964-28.548V162.28C456.145,146.884,444.582,134.982,429.182,134.982z M437.527,218.768
			c0,5.139-4.168,9.304-9.309,9.304h-55.855c-5.141,0-9.309-4.166-9.309-9.304v-55.864c0-5.139,4.168-9.304,9.309-9.304h55.855
			c5.141,0,9.309,4.166,9.309,9.304V218.768z"/>
	</g>
</g>
<g>
	<g>
		<path d="M243,302.545H66.127c-5.146,0-9.309,4.168-9.309,9.309s4.163,9.309,9.309,9.309H243c5.145,0,9.309-4.168,9.309-9.309
			S248.145,302.545,243,302.545z"/>
	</g>
</g>
<g>
	<g>
		<path d="M243,349.091H66.127c-5.146,0-9.309,4.168-9.309,9.309c0,5.141,4.163,9.309,9.309,9.309H243
			c5.145,0,9.309-4.168,9.309-9.309C252.309,353.259,248.145,349.091,243,349.091z"/>
	</g>
</g>
<g>
</g>
<g>
</g>
<g>
</g>
<g>
</g>
<g>
</g>
<g>
</g>
<g>
</g>
<g>
</g>
<g>
</g>
<g>
</g>
<g>
</g>
<g>
</g>
<g>
</g>
<g>
</g>
<g>
</g>
</svg>
