<?xml version="1.0" encoding="iso-8859-1"?>
<!-- Generator: Adobe Illustrator 19.0.0, SVG Export Plug-In . SVG Version: 6.00 Build 0)  -->
<svg version="1.1" id="Layer_1" xmlns="http://www.w3.org/2000/svg" xmlns:xlink="http://www.w3.org/1999/xlink" x="0px" y="0px"
	 viewBox="0 0 488 488" style="enable-background:new 0 0 488 488;" xml:space="preserve">
<g transform="translate(0 -540.36)">
	<g>
		<g>
			<path d="M152.5,698.26c-29.7,0-57.6,11.6-78.7,32.6c-21.1,21.1-32.7,49-32.7,78.7s11.6,57.7,32.7,78.7c21,21,49,32.6,78.7,32.6
				s57.7-11.6,78.7-32.6c21.1-21.1,32.7-49,32.7-78.7s-11.6-57.7-32.7-78.7C210.2,709.86,182.2,698.26,152.5,698.26z M217.1,873.96
				c-35.7,35.6-93.6,35.6-129.2,0c-17.3-17.2-26.8-40.2-26.8-64.5s9.5-47.2,26.8-64.5c17.8-17.8,41.2-26.7,64.6-26.7
				c23.4,0,46.8,8.9,64.6,26.7c17.3,17.2,26.8,40.2,26.8,64.5S234.4,856.66,217.1,873.96z"/>
			<path d="M203.6,799.46c-5.5,0-10,4.5-10,10v30.4h-82.1v-30.4c0-5.5-4.5-10-10-10s-10,4.5-10,10v40.4c0,5.5,4.5,10,10,10h102.1
				c5.5,0,10-4.5,10-10v-40.4C213.6,803.96,209.1,799.46,203.6,799.46z"/>
			<path d="M152.5,798.96c16.9,0,30.6-13.4,30.6-29.8c0-16.9-13.7-30.6-30.6-30.6s-30.6,13.7-30.6,30.6
				C121.9,785.56,135.6,798.96,152.5,798.96z M152.5,758.56c6,0,10.6,4.6,10.6,10.6c0,5.3-4.8,9.8-10.6,9.8s-10.6-4.5-10.6-9.8
				C141.9,763.16,146.6,758.56,152.5,758.56z"/>
			<path d="M478,626.56H254v-19.7c0-5.5-4.5-10-10-10s-10,4.5-10,10v19.7H10c-5.5,0-10,4.5-10,10v325.3c0,5.5,4.5,10,10,10h468
				c5.5,0,10-4.5,10-10v-325.3C488,631.06,483.5,626.56,478,626.56z M468,951.86H20v-305.3h214v21.1h-20.5c-5.5,0-10,4.5-10,10
				s4.5,10,10,10h61c5.5,0,10-4.5,10-10s-4.5-10-10-10H254v-21.1h214V951.86z"/>
			<path d="M305,768.46h131.8c5.6,0,10.1-4.5,10.1-10s-4.5-10-10-10H305c-5.5,0-10,4.5-10,10S299.5,768.46,305,768.46z"/>
			<path d="M305,819.46h131.8c5.6,0,10.1-4.5,10.1-10s-4.5-10-10-10H305c-5.5,0-10,4.5-10,10S299.5,819.46,305,819.46z"/>
			<path d="M305,870.56h131.8c5.6,0,10.1-4.5,10.1-10s-4.5-10-10-10H305c-5.5,0-10,4.5-10,10S299.5,870.56,305,870.56z"/>
		</g>
	</g>
</g>
<g>
</g>
<g>
</g>
<g>
</g>
<g>
</g>
<g>
</g>
<g>
</g>
<g>
</g>
<g>
</g>
<g>
</g>
<g>
</g>
<g>
</g>
<g>
</g>
<g>
</g>
<g>
</g>
<g>
</g>
</svg>
