<svg id="visual" viewBox="0 0 675 900" width="675" height="900" xmlns="http://www.w3.org/2000/svg" xmlns:xlink="http://www.w3.org/1999/xlink" version="1.1"><rect x="0" y="0" width="675" height="900" fill="#ffffff"></rect><path d="M0 819L12.5 796.5C25 774 50 729 75 716.8C100 704.7 125 725.3 150 756.3C175 787.3 200 828.7 225 815.7C250 802.7 275 735.3 300 718.5C325 701.7 350 735.3 375 735.3C400 735.3 425 701.7 450 681.5C475 661.3 500 654.7 525 675.5C550 696.3 575 744.7 600 771.7C625 798.7 650 804.3 662.5 807.2L675 810L675 901L662.5 901C650 901 625 901 600 901C575 901 550 901 525 901C500 901 475 901 450 901C425 901 400 901 375 901C350 901 325 901 300 901C275 901 250 901 225 901C200 901 175 901 150 901C125 901 100 901 75 901C50 901 25 901 12.5 901L0 901Z" fill="#0066FF" stroke-linecap="round" stroke-linejoin="miter"></path></svg>